<svg width="20" height="20" viewBox="0 0 20 20" fill="none" xmlns="http://www.w3.org/2000/svg">
<path d="M16.2 0C15.7226 0 15.2648 0.189642 14.9272 0.527208C14.5896 0.864773 14.4 1.32261 14.4 1.8V17.4C14.4 17.8774 14.5896 18.3352 14.9272 18.6728C15.2648 19.0104 15.7226 19.2 16.2 19.2H17.4C17.8774 19.2 18.3352 19.0104 18.6728 18.6728C19.0104 18.3352 19.2 17.8774 19.2 17.4V1.8C19.2 1.32261 19.0104 0.864773 18.6728 0.527208C18.3352 0.189642 17.8774 0 17.4 0H16.2ZM9 4.8C8.52261 4.8 8.06477 4.98964 7.72721 5.32721C7.38964 5.66477 7.2 6.12261 7.2 6.6V17.4C7.2 17.8774 7.38964 18.3352 7.72721 18.6728C8.06477 19.0104 8.52261 19.2 9 19.2H10.2C10.6774 19.2 11.1352 19.0104 11.4728 18.6728C11.8104 18.3352 12 17.8774 12 17.4V6.6C12 6.12261 11.8104 5.66477 11.4728 5.32721C11.1352 4.98964 10.6774 4.8 10.2 4.8H9ZM1.8 9.6C1.32261 9.6 0.864773 9.78964 0.527208 10.1272C0.189642 10.4648 0 10.9226 0 11.4V17.4C0 17.8774 0.189642 18.3352 0.527208 18.6728C0.864773 19.0104 1.32261 19.2 1.8 19.2H3C3.47739 19.2 3.93523 19.0104 4.27279 18.6728C4.61036 18.3352 4.8 17.8774 4.8 17.4V11.4C4.8 10.9226 4.61036 10.4648 4.27279 10.1272C3.93523 9.78964 3.47739 9.6 3 9.6H1.8Z" fill="#0F6B5B"/>
</svg>
